<svg id="Layer_1" data-name="Layer 1" xmlns="http://www.w3.org/2000/svg" viewBox="0 0 530.935 389.365">
  <defs>
    <style>
      .cls-1 {
        stroke: #000;
        stroke-width: 9px;
      }

      .cls-1, .cls-2, .cls-3 {
        stroke-miterlimit: 10;
      }

      .cls-2, .cls-3 {
        stroke: #006837;
      }

      .cls-2 {
        stroke-width: 4px;
      }

      .cls-3 {
        fill: none;
        stroke-width: 3px;
      }
    </style>
  </defs>
  <title>Untitled-1</title>
  <g>
    <path class="cls-1" d="M548.363,661.371h31.611a22.1,22.1,0,0,1,12.044,4,24.568,24.568,0,0,1,8.617,9.426l15.806,31.992a37.559,37.559,0,0,1-.286,36.086l-15.9,31.611a24.292,24.292,0,0,1-8.76,9.759,23.121,23.121,0,0,1-12.759,3.666H548.173a7.632,7.632,0,0,1-5.666-2.38,7.754,7.754,0,0,1-2.333-5.618,8.03,8.03,0,0,1,2.333-5.761,7.563,7.563,0,0,1,5.666-2.428h8.379V677.557h-8.188a7.56,7.56,0,0,1-5.666-2.428,8.025,8.025,0,0,1-2.333-5.76,7.759,7.759,0,0,1,2.333-5.618A7.638,7.638,0,0,1,548.363,661.371Zm24.185,16.187v94.358l5.6-.02q5.314,0,7.98-5.237l15.807-31.419q2.95-6.188,2.987-10.369a21.522,21.522,0,0,0-2.382-9.892L586.168,682.41a8.772,8.772,0,0,0-8.38-4.853Z" transform="translate(-418.911 -622.635)"/>
    <path class="cls-1" d="M660.087,779.913V661.371h56.558a23,23,0,0,1,16.9,7.141,23.349,23.349,0,0,1,7.094,17.043V694.7a23.377,23.377,0,0,1-7.046,17.091,23.03,23.03,0,0,1-16.948,7.093H706.456l32.663,56.177a9.413,9.413,0,0,1,1.52,4.951,7.383,7.383,0,0,1-2.483,5.57,8,8,0,0,1-5.634,2.333,7.836,7.836,0,0,1-7.241-4.264L687.83,718.88H676.273v61.033a7.558,7.558,0,0,1-2.429,5.665,8.026,8.026,0,0,1-5.76,2.333,7.964,7.964,0,0,1-8-8Zm16-77.029h40.562a7.965,7.965,0,0,0,8-8v-9.331a7.965,7.965,0,0,0-8-8H676.083Z" transform="translate(-418.911 -622.635)"/>
  </g>
  <line class="cls-2" y1="280.596" x2="440.385" y2="280.596"/>
  <g>
    <path d="M531.749,924.436v3.772l-4.179,10.631a1.049,1.049,0,0,1-2.022,0l-4.15-10.632v-3.772a1.02,1.02,0,0,1,.3-.744,1.022,1.022,0,0,1,1.456,0,1.021,1.021,0,0,1,.3.744v3.344l3.121,7.961,3.12-7.937v-3.367a1.02,1.02,0,0,1,.3-.744,1.022,1.022,0,0,1,1.456,0A1.021,1.021,0,0,1,531.749,924.436Z" transform="translate(-418.911 -622.635)"/>
    <path d="M544.75,939.585H538.5a1.022,1.022,0,0,1-.726-1.745.976.976,0,0,1,.726-.306h2.1v-7.653h-2.075a.979.979,0,0,1-.726-.306.993.993,0,0,1-.3-.72,1.031,1.031,0,0,1,.3-.739.97.97,0,0,1,.726-.312h3.125a.971.971,0,0,1,.726.312,1.031,1.031,0,0,1,.3.739v8.679h2.051a1.032,1.032,0,0,1,.739.3,1.011,1.011,0,0,1,.006,1.453A1,1,0,0,1,544.75,939.585Zm-4.175-17.1h1.074a1.023,1.023,0,0,1,1.025,1.025v.879a1.031,1.031,0,0,1-.3.739.971.971,0,0,1-.726.312h-1.1a.975.975,0,0,1-.739-.318.96.96,0,0,1-.287-.707l.024-.9a1.023,1.023,0,0,1,1.025-1.025Z" transform="translate(-418.911 -622.635)"/>
    <path d="M554.442,927.83h4.7a3.084,3.084,0,0,1,1.941.652,1.751,1.751,0,0,1,.842,1.275.929.929,0,0,1-.311.721,1.008,1.008,0,0,1-.69.281,1.193,1.193,0,0,1-.891-.439,1.153,1.153,0,0,0-.842-.439h-4.639q-.684,0-.684.568a.652.652,0,0,0,.456.6l5.452,2.428a3.105,3.105,0,0,1,1.361,1.178,3.219,3.219,0,0,1,.531,1.8,3.008,3.008,0,0,1-.934,2.233,2.947,2.947,0,0,1-2.118.916h-4.15a3.41,3.41,0,0,1-2-.646q-.921-.647-.921-1.258a1,1,0,0,1,.3-.714,1.024,1.024,0,0,1,.775-.312,1.254,1.254,0,0,1,.836.439,1.757,1.757,0,0,0,1.288.439h3.821a.969.969,0,0,0,.757-.348,1.181,1.181,0,0,0,.305-.8,1.034,1.034,0,0,0-.684-1l-5.505-2.479a2.7,2.7,0,0,1-1.221-1.025,2.514,2.514,0,0,1-.427-1.367,2.677,2.677,0,0,1,.763-1.9A2.491,2.491,0,0,1,554.442,927.83Z" transform="translate(-418.911 -622.635)"/>
    <path d="M571.551,937.534l3.448-2.2v-6.481a1.031,1.031,0,0,1,.3-.739,1,1,0,0,1,1.452,0,1.031,1.031,0,0,1,.3.739v9.729a1.025,1.025,0,0,1-2.051,0v-.806l-1.78,1.159a3.89,3.89,0,0,1-2.121.672h-.951a2.982,2.982,0,0,1-2.157-.879,3.1,3.1,0,0,1-.963-2.148l-.305-7.727a.9.9,0,0,1,.287-.715,1.011,1.011,0,0,1,.739-.311.967.967,0,0,1,.714.3,1.042,1.042,0,0,1,.311.721l.281,7.58q.037,1.1,1.255,1.1Z" transform="translate(-418.911 -622.635)"/>
    <path d="M584.83,932.212h4.022a4.541,4.541,0,0,1,.954.146l-.024-1.453a1.022,1.022,0,0,0-1.027-1.024h-3.9a1.025,1.025,0,1,1,0-2.051h3.9a2.97,2.97,0,0,1,2.17.891,3.088,3.088,0,0,1,.936,2.186l.256,7.678a.98.98,0,0,1-.305.727,1,1,0,0,1-.72.3,1.024,1.024,0,0,1-.745-.3.978.978,0,0,1-.305-.727l-1.736,1.025H584.83a3.087,3.087,0,0,1-3.1-3.1v-1.2a3.107,3.107,0,0,1,3.1-3.1Zm5.128,3.991-.061-.866a1.036,1.036,0,0,0-.306-.732.98.98,0,0,0-.721-.293h-4.044a1.021,1.021,0,0,0-1.026,1.025v1.147a1.041,1.041,0,0,0,1.026,1.025h2.9Z" transform="translate(-418.911 -622.635)"/>
    <path d="M605.15,939.609h-6.2a.967.967,0,0,1-.726-.312,1.027,1.027,0,0,1-.3-.738.993.993,0,0,1,.3-.72.976.976,0,0,1,.726-.306H601v-12.1h-2.075a1.025,1.025,0,1,1,0-2.051h3.125a1.042,1.042,0,0,1,1.025,1.025v13.122h2.075a1.043,1.043,0,0,1,1.025,1.025,1.027,1.027,0,0,1-.3.738A.968.968,0,0,1,605.15,939.609Z" transform="translate(-418.911 -622.635)"/>
    <path d="M630.13,932.212h4.022a4.541,4.541,0,0,1,.954.146l-.024-1.453a1.022,1.022,0,0,0-1.027-1.024h-3.9a1.025,1.025,0,1,1,0-2.051h3.9a2.97,2.97,0,0,1,2.17.891,3.088,3.088,0,0,1,.936,2.186l.256,7.678a.98.98,0,0,1-.305.727,1,1,0,0,1-.72.3,1.024,1.024,0,0,1-.745-.3.978.978,0,0,1-.305-.727l-1.736,1.025H630.13a3.087,3.087,0,0,1-3.1-3.1v-1.2a3.107,3.107,0,0,1,3.1-3.1Zm5.128,3.991-.061-.866a1.036,1.036,0,0,0-.306-.732.98.98,0,0,0-.721-.293h-4.044a1.021,1.021,0,0,0-1.026,1.025v1.147a1.041,1.041,0,0,0,1.026,1.025h2.9Z" transform="translate(-418.911 -622.635)"/>
    <path d="M642.174,938.584v-9.729a1.031,1.031,0,0,1,.3-.739,1.008,1.008,0,0,1,1.452-.006,1.023,1.023,0,0,1,.3.745v1.281l1.672-1.428a3.174,3.174,0,0,1,2.026-.879h1.5a3.082,3.082,0,0,1,3.076,3.076v.549a1.02,1.02,0,0,1-.3.744.976.976,0,0,1-.726.306,1.02,1.02,0,0,1-1.025-1.025v-.573a1.022,1.022,0,0,0-1.025-1.025h-1.331a1.536,1.536,0,0,0-.952.451l-2.917,2.527v5.725a.98.98,0,0,1-.305.727,1.022,1.022,0,0,1-1.746-.727Z" transform="translate(-418.911 -622.635)"/>
    <path d="M664.476,939.609h-2.051a3,3,0,0,1-2.185-.9,2.943,2.943,0,0,1-.916-2.173v-6.652h-1.05a1,1,0,0,1-.726-.293,1.028,1.028,0,0,1,.726-1.758h1.074v-2.516a1.024,1.024,0,0,1,1.025-1.025,1,1,0,0,1,.715.306.976.976,0,0,1,.311.72v2.516h4.126a1.025,1.025,0,0,1,0,2.051h-4.15v6.652a.98.98,0,0,0,.312.721,1.02,1.02,0,0,0,.738.3h2a1.079,1.079,0,0,0,1.087-.885,1.052,1.052,0,0,1,1.037-.885.981.981,0,0,1,.739.3,1.043,1.043,0,0,1,.286.75,2.721,2.721,0,0,1-.872,1.85A2.933,2.933,0,0,1,664.476,939.609Z" transform="translate(-418.911 -622.635)"/>
    <path d="M680.649,939.585H674.4a1.023,1.023,0,0,1-.727-1.745.977.977,0,0,1,.727-.306h2.1v-7.653h-2.075a.98.98,0,0,1-.727-.306.994.994,0,0,1-.3-.72,1.032,1.032,0,0,1,.3-.739.971.971,0,0,1,.727-.312h3.125a.971.971,0,0,1,.727.312,1.032,1.032,0,0,1,.3.739v8.679h2.051a1.028,1.028,0,0,1,.738.3,1.012,1.012,0,0,1,.006,1.453A1,1,0,0,1,680.649,939.585Zm-4.174-17.1h1.074a1.022,1.022,0,0,1,1.025,1.025v.879a1.032,1.032,0,0,1-.3.739.971.971,0,0,1-.727.312h-1.1a.977.977,0,0,1-.739-.318.957.957,0,0,1-.286-.707l.024-.9a1.022,1.022,0,0,1,1.025-1.025Z" transform="translate(-418.911 -622.635)"/>
    <path d="M690.343,927.83h4.7a3.083,3.083,0,0,1,1.94.652,1.752,1.752,0,0,1,.843,1.275.929.929,0,0,1-.312.721,1.007,1.007,0,0,1-.69.281,1.193,1.193,0,0,1-.891-.439,1.152,1.152,0,0,0-.842-.439h-4.639q-.684,0-.684.568a.652.652,0,0,0,.456.6l5.452,2.428a3.107,3.107,0,0,1,1.36,1.178,3.219,3.219,0,0,1,.531,1.8,3.008,3.008,0,0,1-.934,2.233,2.947,2.947,0,0,1-2.118.916h-4.15a3.41,3.41,0,0,1-2-.646q-.921-.647-.922-1.258a1,1,0,0,1,.3-.714,1.025,1.025,0,0,1,.774-.312,1.255,1.255,0,0,1,.837.439,1.757,1.757,0,0,0,1.288.439h3.82a.968.968,0,0,0,.757-.348,1.181,1.181,0,0,0,.306-.8,1.034,1.034,0,0,0-.684-1l-5.506-2.479a2.706,2.706,0,0,1-1.221-1.025,2.515,2.515,0,0,1-.428-1.367,2.677,2.677,0,0,1,.764-1.9A2.491,2.491,0,0,1,690.343,927.83Z" transform="translate(-418.911 -622.635)"/>
    <path d="M709.776,939.609h-2.051a3,3,0,0,1-2.185-.9,2.942,2.942,0,0,1-.915-2.173v-6.652h-1.051a1,1,0,0,1-.726-.293,1.028,1.028,0,0,1,.726-1.758h1.074v-2.516a1.014,1.014,0,0,1,1.74-.72.976.976,0,0,1,.311.72v2.516h4.127a1.025,1.025,0,0,1,0,2.051h-4.15v6.652a.979.979,0,0,0,.311.721,1.021,1.021,0,0,0,.738.3h2a1.078,1.078,0,0,0,1.087-.885,1.052,1.052,0,0,1,1.038-.885.979.979,0,0,1,.738.3,1.043,1.043,0,0,1,.287.75,2.723,2.723,0,0,1-.873,1.85A2.932,2.932,0,0,1,709.776,939.609Z" transform="translate(-418.911 -622.635)"/>
  </g>
  <g>
    <path d="M489.4,857.079h5.836a4.078,4.078,0,0,1,2.224.738,4.532,4.532,0,0,1,1.591,1.74l2.918,5.906a6.934,6.934,0,0,1-.053,6.662l-2.936,5.836a4.486,4.486,0,0,1-1.617,1.8,4.27,4.27,0,0,1-2.355.677h-5.643a1.41,1.41,0,0,1-1.046-.439,1.433,1.433,0,0,1-.431-1.037,1.483,1.483,0,0,1,.431-1.063,1.4,1.4,0,0,1,1.046-.448h1.547V860.067H489.4a1.4,1.4,0,0,1-1.046-.448,1.483,1.483,0,0,1-.431-1.063,1.433,1.433,0,0,1,.431-1.037A1.41,1.41,0,0,1,489.4,857.079Zm4.465,2.988v17.42l1.034,0a1.575,1.575,0,0,0,1.473-.967l2.918-5.8a4.766,4.766,0,0,0,.552-1.914,3.966,3.966,0,0,0-.44-1.826l-3.022-6.013a1.619,1.619,0,0,0-1.547-.9Z" transform="translate(-418.911 -622.635)"/>
    <path d="M514.1,869.788h5.792a6.58,6.58,0,0,1,1.373.21l-.034-2.092a1.472,1.472,0,0,0-1.479-1.476h-5.619a1.477,1.477,0,1,1,0-2.953h5.616a4.276,4.276,0,0,1,3.125,1.283,4.45,4.45,0,0,1,1.347,3.146l.369,11.057a1.41,1.41,0,0,1-.439,1.046,1.433,1.433,0,0,1-1.037.431,1.474,1.474,0,0,1-1.072-.431,1.41,1.41,0,0,1-.439-1.046l-2.5,1.477h-5a4.445,4.445,0,0,1-4.472-4.465v-1.723a4.475,4.475,0,0,1,4.471-4.465Zm7.385,5.748-.088-1.248a1.492,1.492,0,0,0-.44-1.055,1.411,1.411,0,0,0-1.038-.422H514.1a1.471,1.471,0,0,0-1.478,1.477v1.652a1.5,1.5,0,0,0,1.478,1.477h4.17Z" transform="translate(-418.911 -622.635)"/>
    <path d="M538.431,866.905l-4.034,2.619v9.439a1.477,1.477,0,0,1-2.953,0v-14.01a1.483,1.483,0,0,1,.431-1.063,1.434,1.434,0,0,1,2.083,0,1.468,1.468,0,0,1,.439,1.063v.984l2.695-1.635a5.59,5.59,0,0,1,3.063-.861h1.373a4.222,4.222,0,0,1,3.045,1.248,4.368,4.368,0,0,1,1.355,3.076l.4,11.2a1.358,1.358,0,0,1-.422,1.037,1.438,1.438,0,0,1-1.055.439,1.477,1.477,0,0,1-1.02-.4,1.434,1.434,0,0,1-.457-1.081l-.439-11.021a1.43,1.43,0,0,0-1.621-1.547h-1.444A2.669,2.669,0,0,0,538.431,866.905Z" transform="translate(-418.911 -622.635)"/>
    <path d="M568.059,869.032V872.6a1.5,1.5,0,0,1-1.477,1.477H556.141v.861a1.6,1.6,0,0,0,.65,1.283l.861.721a2.219,2.219,0,0,0,1.336.545h7.594a1.433,1.433,0,0,1,1.037.431,1.444,1.444,0,0,1-.009,2.083,1.428,1.428,0,0,1-1.028.439H558.8a4.562,4.562,0,0,1-1.626-.325,4.275,4.275,0,0,1-1.257-.677l-1.318-1.16a3.768,3.768,0,0,1-1.028-1.371,3.839,3.839,0,0,1-.413-1.617v-6.768a4.946,4.946,0,0,1,1.582-3.094l1.23-.967a4.166,4.166,0,0,1,2.689-.984H562.8a4.273,4.273,0,0,1,2.953,1.3l1.107,1.055A4.078,4.078,0,0,1,568.059,869.032Zm-11.883-.229v2.285h8.965v-2.057a1.58,1.58,0,0,0-.51-1.266l-.861-.756a1.993,1.993,0,0,0-1.2-.545h-3.709a1.889,1.889,0,0,0-1.248.475l-.861.721A1.369,1.369,0,0,0,556.176,868.8Z" transform="translate(-418.911 -622.635)"/>
    <path d="M586.85,880.44h-8.93a1.4,1.4,0,0,1-1.046-.448,1.483,1.483,0,0,1-.431-1.063,1.433,1.433,0,0,1,.431-1.037,1.41,1.41,0,0,1,1.046-.439h2.953v-17.42h-2.988a1.477,1.477,0,1,1,0-2.953h4.5a1.5,1.5,0,0,1,1.477,1.477v18.9h2.988a1.5,1.5,0,0,1,1.477,1.477,1.483,1.483,0,0,1-.431,1.063A1.4,1.4,0,0,1,586.85,880.44Z" transform="translate(-418.911 -622.635)"/>
    <path d="M611.583,867.8l-7.96,18a1.425,1.425,0,0,1-1.407.966h-4.1a1.44,1.44,0,0,1-1.046-.422,1.416,1.416,0,0,1-.431-1.055,1.4,1.4,0,0,1,.431-1.037,1.439,1.439,0,0,1,1.046-.422h3.164l2.021-4.693h-.72a1.5,1.5,0,0,1-1.445-1.036l-4.426-10.3v-2.848a1.439,1.439,0,0,1,.422-1.046,1.375,1.375,0,0,1,1.02-.431,1.483,1.483,0,0,1,1.063.431,1.4,1.4,0,0,1,.448,1.046v2.2l3.885,9h1.026l4.011-8.968.007-2.266a1.413,1.413,0,0,1,.448-1.027,1.455,1.455,0,0,1,1.063-.448,1.5,1.5,0,0,1,1.477,1.477Z" transform="translate(-418.911 -622.635)"/>
    <path d="M622.551,863.478h6.768a4.435,4.435,0,0,1,2.795.94,2.519,2.519,0,0,1,1.213,1.837,1.334,1.334,0,0,1-.448,1.037,1.449,1.449,0,0,1-.993.4,1.718,1.718,0,0,1-1.283-.633,1.66,1.66,0,0,0-1.213-.633h-6.68q-.984,0-.984.819a.942.942,0,0,0,.657.871l7.851,3.5a4.475,4.475,0,0,1,1.96,1.7,4.636,4.636,0,0,1,.765,2.593,4.334,4.334,0,0,1-1.345,3.217,4.245,4.245,0,0,1-3.05,1.318h-5.977a4.9,4.9,0,0,1-2.874-.932q-1.327-.932-1.327-1.811a1.442,1.442,0,0,1,.431-1.028,1.479,1.479,0,0,1,1.116-.448,1.8,1.8,0,0,1,1.2.633,2.532,2.532,0,0,0,1.854.633h5.5a1.392,1.392,0,0,0,1.09-.5,1.7,1.7,0,0,0,.439-1.151,1.488,1.488,0,0,0-.984-1.441l-7.928-3.568a3.908,3.908,0,0,1-1.758-1.477,3.629,3.629,0,0,1-.615-1.969,3.855,3.855,0,0,1,1.1-2.742A3.591,3.591,0,0,1,622.551,863.478Z" transform="translate(-418.911 -622.635)"/>
    <path d="M661.944,878.964V857.079h10.441a4.246,4.246,0,0,1,3.12,1.318,4.309,4.309,0,0,1,1.31,3.146v1.688a4.315,4.315,0,0,1-1.3,3.155,4.252,4.252,0,0,1-3.129,1.31H670.5l6.03,10.371a1.739,1.739,0,0,1,.28.914,1.363,1.363,0,0,1-.459,1.028,1.479,1.479,0,0,1-1.04.431,1.447,1.447,0,0,1-1.337-.787L667.066,867.7h-2.134v11.268a1.4,1.4,0,0,1-.448,1.046,1.483,1.483,0,0,1-1.063.431,1.47,1.47,0,0,1-1.477-1.477Zm2.953-14.221h7.488a1.47,1.47,0,0,0,1.477-1.477v-1.723a1.47,1.47,0,0,0-1.477-1.477H664.9Z" transform="translate(-418.911 -622.635)"/>
    <path d="M690.677,877.452l4.965-3.164v-9.334a1.482,1.482,0,0,1,.43-1.063,1.444,1.444,0,0,1,2.092,0,1.484,1.484,0,0,1,.432,1.063v14.01a1.477,1.477,0,0,1-2.953,0V877.8l-2.562,1.67a5.618,5.618,0,0,1-3.055.967h-1.369a4.292,4.292,0,0,1-3.105-1.266,4.466,4.466,0,0,1-1.387-3.094l-.439-11.127a1.294,1.294,0,0,1,.412-1.028,1.455,1.455,0,0,1,1.064-.448,1.388,1.388,0,0,1,1.027.439,1.5,1.5,0,0,1,.449,1.037l.4,10.916q.053,1.582,1.807,1.582Z" transform="translate(-418.911 -622.635)"/>
    <path d="M717.315,885.257v-6.943l-1.125.932a4.808,4.808,0,0,1-3.094,1.2H711.11a4.416,4.416,0,0,1-2.936-1l-1.371-1.16a3.739,3.739,0,0,1-1.011-1.415,4.359,4.359,0,0,1-.4-1.749v-6.152a4.066,4.066,0,0,1,1.3-3.252l1.072-.932a4.763,4.763,0,0,1,3.3-1.336h2.162a6.278,6.278,0,0,1,4.078,2.092v-.615a1.477,1.477,0,1,1,2.953,0v20.338a1.474,1.474,0,0,1-.431,1.072,1.464,1.464,0,0,1-2.092,0A1.474,1.474,0,0,1,717.315,885.257Zm-6.346-7.8h2.057a1.8,1.8,0,0,0,1.16-.316l2.654-2.268a1.751,1.751,0,0,0,.475-1.371V870.1a1.545,1.545,0,0,0-.615-1.143l-2.232-1.986a1.663,1.663,0,0,0-1.2-.545h-2.408a1.244,1.244,0,0,0-.861.334l-1.107.967a1.4,1.4,0,0,0-.545,1.072v6.24a1.545,1.545,0,0,0,.615,1.143l.967.861A1.612,1.612,0,0,0,710.97,877.452Z" transform="translate(-418.911 -622.635)"/>
    <path d="M734.165,877.452l4.965-3.164v-9.334a1.483,1.483,0,0,1,.431-1.063,1.444,1.444,0,0,1,2.092,0,1.483,1.483,0,0,1,.431,1.063v14.01a1.477,1.477,0,0,1-2.953,0V877.8l-2.562,1.67a5.613,5.613,0,0,1-3.054.967h-1.369a4.294,4.294,0,0,1-3.106-1.266,4.47,4.47,0,0,1-1.387-3.094l-.439-11.127a1.3,1.3,0,0,1,.413-1.028,1.453,1.453,0,0,1,1.063-.448,1.39,1.39,0,0,1,1.028.439,1.5,1.5,0,0,1,.448,1.037l.4,10.916q.053,1.582,1.807,1.582Z" transform="translate(-418.911 -622.635)"/>
    <path d="M763.757,869.032V872.6a1.5,1.5,0,0,1-1.477,1.477H751.839v.861a1.6,1.6,0,0,0,.65,1.283l.861.721a2.219,2.219,0,0,0,1.336.545h7.594a1.433,1.433,0,0,1,1.037.431,1.444,1.444,0,0,1-.009,2.083,1.428,1.428,0,0,1-1.028.439h-7.787a4.562,4.562,0,0,1-1.626-.325,4.275,4.275,0,0,1-1.257-.677l-1.318-1.16a3.768,3.768,0,0,1-1.028-1.371,3.839,3.839,0,0,1-.413-1.617v-6.768a4.946,4.946,0,0,1,1.582-3.094l1.23-.967a4.166,4.166,0,0,1,2.689-.984H758.5a4.273,4.273,0,0,1,2.953,1.3l1.107,1.055A4.078,4.078,0,0,1,763.757,869.032Zm-11.883-.229v2.285h8.965v-2.057a1.58,1.58,0,0,0-.51-1.266l-.861-.756a1.993,1.993,0,0,0-1.2-.545h-3.709a1.889,1.889,0,0,0-1.248.475l-.861.721A1.369,1.369,0,0,0,751.874,868.8Z" transform="translate(-418.911 -622.635)"/>
  </g>
  <g>
    <line class="cls-3" x1="377.012" y1="51.647" x2="77.373" y2="51.647"/>
    <line class="cls-3" x1="75.796" y1="49.981" x2="229.089" y2="190.695"/>
    <line class="cls-3" x1="229.089" y1="190.695" x2="377.012" y2="51.647"/>
  </g>
</svg>
